# xmcd
#
# Track frame offsets: 
#        150
#        13880
#        28029
#        38357
#        49950
#        63960
#        75130
#        87821
#        101712
#        113721
#        130480
#        144265
#        156316
#        168306
#        182125
#        192839
#        208017
#        219651
#        230834
#        241174
#
# Disc length: 3399 seconds
#
# Revision: 0
# Processed by: cddbd v1.5.2PL0 Copyright (c) Steve Scherf et al.
# Submitted via: ExactAudioCopy v0.95b4
#
DISCID=0d0d4514
DTITLE=Boogertown Gap - Fried Okra
DYEAR=2009
DGENRE=Folklore
TTITLE0=Black-eyed Daisy
TTITLE1=Sugar Babe (Crawdad Song)
TTITLE2=Rabbit in the Pea Patch
TTITLE3=Booth Shot Lincoln
TTITLE4=Hunting the Buffalo
TTITLE5=Buffalo Gals
TTITLE6=Train 45
TTITLE7=Waynesboro
TTITLE8=Chinquapin
TTITLE9=Lady Margaret
TTITLE10=Fall on My Knees
TTITLE11=Say Darlin' Say
TTITLE12=Pretty Little Widow
TTITLE13=Mary of the Wile Moor
TTITLE14=Southwind
TTITLE15=Oh My Little Darlin' (Doney)
TTITLE16=Sourwood Mountain
TTITLE17=Old Molly Hare
TTITLE18=Gray Cat on a Tennessee Farm
TTITLE19=Cluck Old Hen
EXTD=
EXTT0=
EXTT1=
EXTT2=
EXTT3=
EXTT4=
EXTT5=
EXTT6=
EXTT7=
EXTT8=
EXTT9=
EXTT10=
EXTT11=
EXTT12=
EXTT13=
EXTT14=
EXTT15=
EXTT16=
EXTT17=
EXTT18=
EXTT19=
PLAYORDER=
